# xmcd
#
# Track frame offsets: 
#        150
#        18335
#        42798
#        64218
#        88990
#        105089
#        126144
#        140643
#        161557
#        181037
#        205159
#        222157
#        241103
#        258958
#        274946
#        293595
#
# Disc length: 4199 seconds
#
# Revision: 0
# Processed by: cddbd v1.5.2PL0 Copyright (c) Steve Scherf et al.
# Submitted via: ExactAudioCopy v0.99pb5
#
DISCID=dd106510
DTITLE=Brenn Hill - Equine
DYEAR=2010
DGENRE=Country
TTITLE0=Equine
TTITLE1=Back's Against The Wall
TTITLE2=Casey's A Cowboy
TTITLE3=The Ballad of Ed Cantrell
TTITLE4=Wild Weber River
TTITLE5=Rachel's Roses
TTITLE6=Hell On Yer Women
TTITLE7=Hey Little Isaac
TTITLE8=Still Your Little Cowgirl
TTITLE9=Nothin' In This Life
TTITLE10=With A Whisper
TTITLE11=Where The High Meets The Lonesome
TTITLE12=Ridin' Them Colts
TTITLE13=Monster On Your Back
TTITLE14=The Carter Cedars
TTITLE15=The Power Of Prayer
EXTD=
EXTT0=
EXTT1=
EXTT2=
EXTT3=
EXTT4=
EXTT5=
EXTT6=
EXTT7=
EXTT8=
EXTT9=
EXTT10=
EXTT11=
EXTT12=
EXTT13=
EXTT14=
EXTT15=
PLAYORDER=
